<?xml version="1.0" encoding="iso-8859-1"?>

<!DOCTYPE svg PUBLIC "-//W3C//DTD SVG 1.1//EN" "http://www.w3.org/Graphics/SVG/1.1/DTD/svg11.dtd">
<!-- Uploaded to: SVG Repo, www.svgrepo.com, Generator: SVG Repo Mixer Tools -->
<svg height="800px" width="800px" version="1.1" id="_x35_" xmlns="http://www.w3.org/2000/svg" xmlns:xlink="http://www.w3.org/1999/xlink" 
	 viewBox="0 0 512 512"  xml:space="preserve">
<g>
	<path style="fill:#64653E;" d="M232.017,350.043l-4.064,12.396c-2.642,7.992-5.419,16.054-8.603,23.708
		c-3.387,8.264-7.18,16.121-11.448,23.098c-2.641,4.133-5.419,7.993-8.467,11.38c-15.105,17.002-34.546,21.744-57.577,14.157
		c-3.996-1.287-7.654-2.912-11.109-4.809c-9.28-5.216-16.528-12.463-21.269-21.269c-2.032-3.794-3.59-7.859-4.674-12.125
		c-0.474-1.761-0.813-3.59-1.084-5.419c-2.642-18.017,3.251-36.781,15.037-49.787c2.642-2.981,5.69-5.69,8.941-7.993
		c5.283-3.726,12.667-2.438,16.46,2.845c2.303,3.251,2.71,7.247,1.423,10.702c0,0.068,0,0.068,0,0.136
		c-0.068,0.068-0.068,0.136-0.068,0.203c-0.813,2.168-2.235,3.996-4.267,5.419c-5.148,3.657-9.212,9.211-11.651,15.579
		c-0.271,0.609-0.542,1.355-0.813,2.032c-0.339,1.017-0.677,1.965-0.881,3.049c-1.151,4.742-1.49,9.619-0.813,14.36
		c1.287,8.331,6.096,19.373,22.15,24.656c17.815,5.825,29.804,0.813,41.319-20.457c5.013-9.28,9.958-21.609,15.173-37.458
		l3.861-11.786l16.664,5.486L232.017,350.043z"/>
	<path style="fill:#FFFFFA;" d="M342.749,13.797c-0.136,0.542-0.271,1.151-0.474,1.694l-0.203,0.609L331.64,47.801l-2.235,6.706
		l-52.496,159.318l-0.339,1.083l-44.571,135.135l-5.758-1.896l-16.663-5.486l37.12-112.715h0.068l6.096-18.56l1.626-4.877v-0.068
		l52.496-159.318l2.235-6.706l10.635-32.311c1.423-4.267,5.08-7.247,9.28-7.925c1.761-0.339,3.725-0.203,5.622,0.407
		C340.379,2.417,343.698,8.174,342.749,13.797z"/>
	<path style="fill:#C2CE2C;" d="M461.645,148.781c-32.581-46.671-79.683-83.772-137.449-103.695
		c17.048,29.137,29.059,61.879,34.64,97.237c4.071,25.793,4.461,51.317,1.564,76.039c-3.413,29.119-11.397,57.12-23.304,83.138
		c0.032,0.493,0.078,0.984,0.103,1.478c26.454-32.228,70.938-46.611,112.912-32.779c28.152,9.277,49.668,29.431,61.423,54.262
		C515.213,261.149,496.95,199.354,461.645,148.781z"/>
	<path style="fill:#CCDA6D;" d="M316.806,42.653c-3.184,1.354-6.367,2.777-9.483,4.334c-0.136,0-0.271,0.068-0.339,0.136
		c-0.61,0.271-1.152,0.543-1.693,0.814c-5.758,2.709-11.38,5.689-16.934,8.873c-1.016,0.609-2.032,1.22-3.048,1.761
		c-0.542,0.338-1.084,0.677-1.626,0.948c-2.1,1.287-4.132,2.506-6.164,3.793c-0.474,0.339-0.948,0.609-1.423,0.948
		c-2.98,1.897-5.893,3.794-8.738,5.825c-0.271,0.203-0.542,0.339-0.813,0.542c-2.574,1.829-5.148,3.726-7.654,5.623
		c-6.774,5.148-13.412,10.635-19.847,16.527c-2.642,2.371-5.284,4.877-7.925,7.452c-18.56,18.356-34.072,38.61-46.468,60.217
		c-14.495,25.401-24.724,52.632-30.617,80.608c-0.339,0.406-0.745,0.812-1.016,1.219c-2.168-41.659-29.33-79.659-71.327-93.478
		c-14.36-4.741-28.992-6.163-43.081-4.673c-9.212,0.948-18.153,3.048-26.688,6.367c-4.064,1.558-8.06,3.387-11.921,5.419
		c24.859-38,58.254-68.686,96.66-90.159c12.26-6.977,25.063-12.937,38.272-17.95c3.251-1.287,6.503-2.439,9.754-3.522
		c3.522-1.22,7.044-2.304,10.635-3.319c5.351-1.558,10.77-2.981,16.257-4.268c5.419-1.219,10.973-2.302,16.528-3.251
		c17.883-2.912,36.104-4.131,54.529-3.522c3.996,0.136,8.06,0.339,12.125,0.678c8.603,0.677,17.273,1.761,25.876,3.319
		c3.183,0.542,6.367,1.151,9.551,1.829c3.048,0.609,6.029,1.287,9.077,2.032c0.474,0.135,1.016,0.27,1.558,0.406
		c2.574,0.609,5.148,1.287,7.722,2.032c0.203,0.068,0.474,0.136,0.677,0.203C311.726,41.095,314.3,41.839,316.806,42.653z"/>
	<g style="opacity:0.1;">
		<path style="fill:#040000;" d="M145.567,347.063c-0.068,0.068-0.068,0.136-0.068,0.203c-0.745,2.371-2.236,4.47-4.403,6.029
			c-5.012,3.522-9.009,8.873-11.515,14.97c-0.271,0.609-0.542,1.355-0.813,2.032c-1.964,5.69-2.709,11.854-1.896,17.748
			c-1.761-3.319-2.642-6.706-3.116-9.687c-1.964-13.141,3.997-27.84,14.157-35.02c2.777-1.896,4.403-4.809,4.877-7.857
			c0.406,0.407,0.813,0.881,1.152,1.354C146.109,339.95,146.583,343.744,145.567,347.063z"/>
		<path style="fill:#040000;" d="M342.631,13.662c-0.068,0.407-0.068,0.813-0.203,1.219c0,0.203-0.068,0.407-0.136,0.61L342.09,16.1
			l-10.432,31.701l-2.235,6.706l-52.496,159.318l-0.339,1.083l-44.571,135.135l-4.064,12.396
			c-2.642,7.992-5.419,16.054-8.603,23.708c-3.319,8.331-7.045,16.189-11.38,23.165c-2.709,4.336-5.622,8.332-8.738,11.854
			c-15.105,17.07-34.478,21.812-57.576,14.225c-3.319-1.084-6.503-2.372-9.416-3.929c-10.635-5.486-18.696-13.547-23.64-23.64
			c-1.964-3.861-3.455-8.06-4.403-12.531c0.203,0.406,0.406,0.881,0.61,1.288c6.164,13.48,17.951,23.64,33.733,28.856
			c23.031,7.586,42.404,2.844,57.576-14.158c2.168-2.371,4.132-5.013,6.029-7.789c9.754-14.158,16.663-32.717,22.692-51.006
			l1.423-4.335l42.606-129.378l2.439-7.316l54.054-164.262l0.542-1.49l12.057-36.713l0.948-2.845
			c0.271-0.609,0.406-1.287,0.474-1.897C341.751,6.684,342.97,10.139,342.631,13.662z"/>
	</g>
	<path style="fill:#439339;" d="M360.429,218.362c-3.455,29.127-11.448,57.102-23.301,83.113
		c-0.881-12.599-3.996-24.927-9.144-36.239c-10.025-22.15-27.772-40.71-51.074-51.412c-1.829-0.814-3.726-1.626-5.622-2.372
		c-1.761-0.677-3.59-1.354-5.419-1.965c-3.793-1.219-7.587-2.235-11.38-2.98v-0.068c-3.048-0.609-6.096-1.151-9.145-1.422
		c-1.084-0.203-2.168-0.271-3.183-0.339c-0.203,0-0.474-0.068-0.678-0.068c-1.016-0.068-1.964-0.136-2.913-0.203h-0.271
		c-1.693-0.068-3.319-0.135-4.945-0.135c-17.882,0-35.223,4.606-50.464,13.074c-10.906,6.028-20.728,14.088-28.856,23.708
		c5.893-27.976,16.122-55.207,30.617-80.608c12.396-21.608,27.908-41.861,46.468-60.217c2.641-2.575,5.283-5.08,7.925-7.452
		c6.435-5.892,13.073-11.379,19.847-16.527c2.506-1.897,5.08-3.794,7.654-5.623c0.271-0.203,0.542-0.338,0.813-0.542
		c2.845-2.032,5.758-3.928,8.738-5.825c0.474-0.339,0.948-0.609,1.423-0.948c2.574-1.626,5.148-3.183,7.79-4.741
		c1.016-0.542,2.032-1.152,3.048-1.761c5.554-3.184,11.176-6.164,16.934-8.873c0.542-0.271,1.084-0.542,1.693-0.814
		c0.067-0.068,0.203-0.136,0.339-0.136c3.116-1.558,6.299-2.98,9.483-4.334c1.219,0.406,2.439,0.745,3.658,1.151
		c1.287,0.407,2.506,0.881,3.725,1.287c0.406,0.677,0.813,1.354,1.151,2.099c1.423,2.371,2.777,4.877,4.065,7.316
		c14.36,26.688,24.453,56.221,29.465,87.787c1.558,9.889,2.574,19.779,2.98,29.533C362.732,187.542,362.19,203.122,360.429,218.362z
		"/>
	<path style="opacity:0.1;fill:#FFFFFF;" d="M446.59,129.153l-62.047,31.226l-22.692,11.448l-84.062,42.404
		c-0.271-0.136-0.609-0.27-0.88-0.406l-0.339,1.083l-7.722,3.861l-22.082,11.176h-0.068l6.164-18.56l1.626-4.877v-0.068
		c-3.048-0.609-6.096-1.151-9.145-1.422c-1.084-0.203-2.168-0.271-3.183-0.339c-0.203,0-0.474-0.068-0.678-0.068
		c-1.016-0.068-1.964-0.203-2.913-0.203h-0.271c-1.693-0.068-3.319-0.135-4.945-0.135c-17.882,0-35.223,4.606-50.464,13.074
		c-10.906,6.028-20.728,14.088-28.856,23.708c-0.339,0.406-0.745,0.812-1.016,1.219c-2.168-41.659-29.33-79.659-71.327-93.478
		c-14.36-4.741-28.992-6.163-43.081-4.673c-9.212,0.948-18.153,3.048-26.688,6.367c-4.064,1.558-8.06,3.387-11.921,5.419
		c24.859-38,58.254-68.686,96.66-90.159c12.26-6.977,25.063-12.937,38.272-17.95c3.251-1.287,6.503-2.439,9.754-3.522
		c3.522-1.22,7.044-2.304,10.635-3.319c5.351-1.558,10.77-2.981,16.257-4.268c5.419-1.219,10.973-2.302,16.528-3.251
		c17.883-2.912,36.104-4.131,54.529-3.522c4.064,0.136,8.128,0.407,12.193,0.746c8.602,0.677,17.205,1.761,25.808,3.251
		c3.183,0.542,6.367,1.151,9.551,1.829c3.048,0.609,6.029,1.287,9.077,2.032c0.474,0.135,1.016,0.27,1.558,0.406
		c2.574,0.609,5.148,1.287,7.722,2.032c0.203,0.068,0.474,0.136,0.677,0.203l10.635-32.311c1.423-4.267,5.08-7.247,9.28-7.925
		c1.761-0.339,3.725-0.203,5.622,0.407c5.622,1.828,8.941,7.586,7.993,13.208c-0.068,0.339-0.203,0.745-0.339,1.083
		c0,0.203-0.068,0.407-0.136,0.61l-0.203,0.609L331.64,47.801c0.339,0.136,0.61,0.27,0.948,0.406
		c1.558,0.542,2.98,1.152,4.538,1.761h0.068c0.271,0.068,0.61,0.203,0.881,0.338c1.355,0.542,2.642,1.085,3.997,1.693
		c1.693,0.678,3.387,1.355,5.08,2.168c0.203,0.068,0.406,0.203,0.609,0.271c4.268,1.897,8.467,3.928,12.599,6.096
		c2.371,1.152,4.674,2.372,6.977,3.658c2.574,1.422,5.148,2.845,7.654,4.335c0.136,0.068,0.271,0.136,0.406,0.271
		c2.71,1.558,5.351,3.183,7.993,4.877c0.61,0.406,1.219,0.813,1.897,1.22c2.167,1.354,4.267,2.844,6.367,4.267
		c0.067,0.068,0.203,0.136,0.271,0.203c1.626,1.084,3.184,2.236,4.81,3.455c2.167,1.558,4.267,3.048,6.367,4.674
		c2.032,1.626,4.132,3.252,6.164,4.878c1.896,1.558,3.793,3.116,5.622,4.742c0.609,0.474,1.151,0.948,1.761,1.49
		c0.068,0.068,0.068,0.068,0.136,0.136c1.626,1.422,3.251,2.844,4.81,4.334c0.609,0.542,1.219,1.084,1.829,1.693
		c1.829,1.694,3.658,3.455,5.419,5.216c4.2,4.065,8.196,8.264,12.057,12.599c1.558,1.761,3.048,3.522,4.606,5.284
		C445.845,128.272,446.252,128.746,446.59,129.153z"/>
</g>
</svg>