<?xml version="1.0" encoding="iso-8859-1"?>
<!-- Uploaded to: SVG Repo, www.svgrepo.com, Generator: SVG Repo Mixer Tools -->
<!DOCTYPE svg PUBLIC "-//W3C//DTD SVG 1.1//EN" "http://www.w3.org/Graphics/SVG/1.1/DTD/svg11.dtd">
<svg fill="#000000" height="800px" width="800px" version="1.1" id="Capa_1" xmlns="http://www.w3.org/2000/svg" xmlns:xlink="http://www.w3.org/1999/xlink" 
	 viewBox="0 0 410.014 410.014" xml:space="preserve">
<g>
	<path d="M408.166,292.329c-0.47-0.459-0.928-0.917-1.393-1.381c-20.73-20.731-37.276-44.39-49.179-70.319
		c-0.416-0.907-1.053-1.695-1.851-2.295c-25.901-19.45-51.068-41.346-74.802-65.079c-23.731-23.732-45.625-48.897-65.072-74.795
		c-0.114-0.153-0.24-0.304-0.371-0.446c-0.002-0.004-0.004-0.005-0.006-0.007c-0.04-0.045-0.082-0.089-0.124-0.132
		c-0.003-0.003-0.006-0.006-0.009-0.009l-0.001-0.001c-0.003-0.003-0.006-0.006-0.008-0.009c-0.001,0-0.001,0-0.001-0.001
		c-0.003-0.002-0.005-0.005-0.008-0.007c-0.001-0.002-0.002-0.003-0.003-0.004c-0.002-0.002-0.003-0.003-0.005-0.005
		c-0.001-0.001-0.002-0.002-0.004-0.003c-0.002-0.003-0.005-0.006-0.008-0.008c-0.003-0.004-0.007-0.008-0.011-0.012l-0.001-0.001
		c-0.004-0.004-0.008-0.008-0.012-0.012c-0.549-0.547-1.177-0.965-1.847-1.255c-25.885-11.898-49.503-28.426-70.204-49.126
		c-0.475-0.476-0.95-0.951-1.42-1.433c-1.581-1.621-3.94-2.215-6.102-1.535c-2.16,0.682-3.753,2.521-4.117,4.757
		c-5.588,34.269-2.304,70.821,9.498,105.707c11.677,34.52,31.63,66.924,57.795,94.011L88.453,339.382
		c-1.399,0.094-2.773,0.65-3.842,1.719l-28.208,28.21c-2.918,2.917-6.796,4.523-10.922,4.523c-4.125,0-8.003-1.606-10.921-4.524
		c-2.917-2.916-4.523-6.795-4.523-10.92s1.606-8.004,4.523-10.92c2.344-2.344,2.344-6.143,0.001-8.485s-6.143-2.344-8.485-0.001
		c-5.185,5.184-8.039,12.075-8.039,19.406s2.854,14.223,8.038,19.405c5.184,5.185,12.075,8.039,19.406,8.039
		s14.223-2.854,19.407-8.039l28.209-28.21c1.068-1.068,1.625-2.441,1.718-3.839l110.444-110.444
		c46.066,44.497,106.489,69.943,166.489,69.943c11.131,0,22.228-0.883,32.987-2.625c1.441-0.174,2.824-0.87,3.843-2.062
		c0.964-1.13,1.436-2.515,1.436-3.893C410.014,295.077,409.387,293.498,408.166,292.329z M272.457,161.74
		c22.423,22.423,46.121,43.212,70.505,61.923c-46.73,27.296-108.215,9.622-128.274,2.607c-1.561-0.546-2.97-1.437-4.138-2.608
		c-0.015-0.015-0.03-0.03-0.044-0.044c-1.159-1.162-2.041-2.561-2.584-4.109c-7.028-20.052-24.724-81.496,2.614-128.274
		C229.245,115.617,250.034,139.316,272.457,161.74z M141.925,42.808c18.625,17.284,39.341,31.499,61.738,42.378
		c-14.882,24.563-20.102,56.432-15.086,92.695c1.442,10.424,3.527,19.865,5.631,27.755c-18.424-22.447-32.694-47.843-41.733-74.562
		C142.634,101.982,139.04,71.707,141.925,42.808z M371.748,293.244c-50.652,0-101.691-19.185-143.218-53.264
		c7.896,2.107,17.348,4.195,27.786,5.64c8.954,1.238,17.637,1.853,26.012,1.853c25.543,0,48.178-5.744,66.677-16.952
		c10.879,22.401,25.094,43.118,42.381,61.747C384.902,292.917,378.333,293.244,371.748,293.244z"/>
	<path d="M125,204.767c0-2.485-2.015-4.5-4.5-4.5H4.5c-2.485,0-4.5,2.015-4.5,4.5s2.015,4.5,4.5,4.5h116
		C122.985,209.267,125,207.252,125,204.767z"/>
	<path d="M4.5,142.267h116c2.485,0,4.5-2.015,4.5-4.5s-2.015-4.5-4.5-4.5H4.5c-2.485,0-4.5,2.015-4.5,4.5S2.015,142.267,4.5,142.267
		z"/>
	<path d="M54,230.767c0,2.485,2.015,4.5,4.5,4.5h103c2.485,0,4.5-2.015,4.5-4.5s-2.015-4.5-4.5-4.5h-103
		C56.015,226.267,54,228.282,54,230.767z"/>
	<path d="M262.5,310.267h-103c-2.485,0-4.5,2.015-4.5,4.5s2.015,4.5,4.5,4.5h103c2.485,0,4.5-2.015,4.5-4.5
		S264.985,310.267,262.5,310.267z"/>
</g>
</svg>